<svg id="Capa_1" enable-background="new 0 0 512.002 512.002" height="512" viewBox="0 0 512.002 512.002" width="512" xmlns="http://www.w3.org/2000/svg"><g><g><path d="m289.181 512.001h-33.204c-17.079 0-30.975-13.87-30.975-30.92v-36.646c0-.172-.052-.341-.148-.488l-25.492-38.559c-7.24-10.952-6.754-25.323 1.21-35.763l22.142-29.023c.063-.083.232-.304.173-.674-.062-.38-.302-.545-.392-.606l-14.743-10.102c-6.408-4.389-10.9-10.97-12.651-18.53l-12.128-52.404c-.098-.419-.498-.724-.952-.724h-12.581c-.265 0-.521.103-.702.282l-79.432 78.2c-11.993 11.806-31.506 11.808-43.501 0l-36.58-36.011c-5.863-5.769-9.225-13.794-9.225-22.013v-69.57c0-8.219 3.362-16.242 9.225-22.014l38.361-37.768c5.835-5.743 13.559-8.905 21.751-8.905h9.771c.537 0 .975-.412.975-.919v-53.135c0-8.22 3.362-16.244 9.226-22.015l55.65-54.788c5.832-5.742 13.557-8.905 21.75-8.905h58.457c17.079 0 30.975 13.87 30.975 30.919v27.295c0 .379.242.715.618.855l20.488 7.663c.355.133.761.057 1.037-.194l4.901-4.485c10.037-9.185 25.201-10.715 36.876-3.718l43.086 25.82c10.995 6.588 16.833 19.476 14.527 32.069l-5.93 32.374c-.07.383.124.768.483.958l25.007 13.257c.434.231.979.114 1.269-.266l11.555-15.167c5.821-7.642 15.038-12.204 24.655-12.204h14.316c17.079 0 30.975 13.871 30.975 30.92v51c0 8.219-3.361 16.242-9.224 22.013l-15.156 14.922c-5.832 5.742-13.557 8.905-21.75 8.905h-16.987c-.538 0-.976.413-.976.92v66.636c0 8.221-3.362 16.244-9.225 22.015l-33.666 33.145c-.176.173-.271.397-.271.635v43.016c0 8.217-3.361 16.24-9.222 22.013l-52.596 51.78c-5.831 5.741-13.556 8.904-21.75 8.904zm-119.743-284.438h12.581c14.505 0 26.915 9.853 30.18 23.96l12.127 52.402c.052.22.187.415.38.547l14.744 10.103c6.962 4.77 11.72 12.277 13.057 20.6 1.334 8.314-.831 16.926-5.942 23.625l-22.142 29.023c-.231.303-.246.704-.036 1.022l25.493 38.56c3.352 5.07 5.122 10.96 5.122 17.031v36.646c0 .507.438.92.975.92h33.204c.265 0 .521-.104.703-.283l52.595-51.779c.174-.171.271-.397.271-.636v-43.016c0-8.22 3.362-16.244 9.226-22.015l33.666-33.145c.175-.172.271-.396.271-.635v-66.636c0-17.05 13.896-30.92 30.976-30.92h16.987c.264 0 .52-.104.702-.283l15.157-14.922c.175-.171.271-.396.271-.635v-51c0-.507-.438-.92-.975-.92h-14.316c-.313 0-.608.144-.792.384l-11.555 15.167c-9.232 12.12-25.711 15.734-39.183 8.592l-25.008-13.257c-11.974-6.348-18.38-19.557-15.941-32.869l5.93-32.373c.067-.366-.104-.732-.438-.932l-43.088-25.821c-.38-.228-.874-.18-1.201.117l-4.9 4.484c-8.638 7.907-20.823 10.27-31.801 6.163l-20.49-7.664c-12.027-4.501-20.106-16.136-20.106-28.954v-27.294c0-.507-.438-.919-.975-.919h-58.457c-.264 0-.52.104-.702.283l-55.652 54.79c-.176.173-.271.397-.271.635v53.135c0 17.049-13.896 30.919-30.975 30.919h-9.771c-.265 0-.521.104-.705.285l-38.36 37.766c-.175.172-.271.397-.271.636v69.57c0 .237.096.462.271.634l36.58 36.013c.382.376 1.027.374 1.407 0l79.431-78.199c5.828-5.742 13.552-8.905 21.746-8.905z"/></g><g><path d="m454.497 496.004c-4.441 0-8.882-1.029-12.941-3.09-8.191-4.159-13.905-12.058-15.285-21.129l-8.711-57.265c-2.327-15.299 8.216-29.829 23.5-32.391l37.659-6.313c8.853-1.485 17.692 1.179 24.246 7.308 6.535 6.111 9.777 14.718 8.895 23.614l-5.072 51.137c-.952 9.6-6.635 17.996-15.202 22.46l-23.876 12.441c-4.13 2.151-8.672 3.228-13.213 3.228zm-7.056-84.525 8.18 53.768 21.394-11.146 4.799-48.383z"/></g></g></svg>